# xmcd CD database file
#
# Track frame offsets:
#	183
#	16125
#	38940
#	56380
#	76710
#	90408
#	107213
#	124660
#	144685
#	156705
#	171898
#	188010
#	207023
#
# Disc length: 2948 seconds
#
# Revision: 1
# Processed by: cddbd v1.5.1PL2 Copyright (c) Steve Scherf et al.
# Submitted via: CDex 1.51
#
DISCID=a40b820d
DTITLE=Soesja Citroen and Het Metropool Orkest - Soesja In Silk
DYEAR=1988
DGENRE=Jazz
TTITLE0=Yesterdays
TTITLE1=I Cover The Waterfront
TTITLE2=When The Sun Comes Out
TTITLE3=Loverman
TTITLE4=Any Place I Hang My Head Is Home
TTITLE5=Moon Ray
TTITLE6=Solitude
TTITLE7=Daydream
TTITLE8=You'd Be So Nice To Come Home To
TTITLE9=I'm A Fool To Want You
TTITLE10=Come Rain Or Come Shine
TTITLE11=Black Cofee
TTITLE12=Can't We Be Friends
EXTD=YEAR: 1988
EXTT0=
EXTT1=
EXTT2=
EXTT3=
EXTT4=
EXTT5=
EXTT6=
EXTT7=
EXTT8=
EXTT9=
EXTT10=
EXTT11=
EXTT12=
PLAYORDER=
